# xmcd CD database file
#
# Track frame offsets:
#	150
#	23755
#	44610
#	64162
#	88590
#	111690
#	130982
#	151252
#	171992
#	193955
#	215855
#
# Disc length: 2975 seconds
#
# Revision: 0
# Processed by: cddbd v1.5.1PL2 Copyright (c) Steve Scherf et al.
# Submitted via: CDex 1.51
#
DISCID=aa0b9d0b
DTITLE=鈴木トオル - 黄金の椅子 II
DYEAR=1991
DGENRE=Pop
TTITLE0=TOO MUCH LOVER
TTITLE1=最後の女王
TTITLE2=結末
TTITLE3=やさしいクラクション
TTITLE4=mother Moon
TTITLE5=2 OF HEART
TTITLE6=ア デュー
TTITLE7=サラサラ…
TTITLE8=のどかな休日
TTITLE9=SAME
TTITLE10=観覧車
EXTD=YEAR: 1991
EXTT0=
EXTT1=
EXTT2=
EXTT3=
EXTT4=
EXTT5=
EXTT6=
EXTT7=
EXTT8=
EXTT9=
EXTT10=
PLAYORDER=
